<?xml version="1.0" encoding="UTF-8" standalone="no"?>
<!-- Created with Inkscape (http://www.inkscape.org/) -->

<svg
   xmlns:dc="http://purl.org/dc/elements/1.1/"
   xmlns:cc="http://creativecommons.org/ns#"
   xmlns:rdf="http://www.w3.org/1999/02/22-rdf-syntax-ns#"
   xmlns:svg="http://www.w3.org/2000/svg"
   xmlns="http://www.w3.org/2000/svg"
   xmlns:xlink="http://www.w3.org/1999/xlink"
   xmlns:sodipodi="http://sodipodi.sourceforge.net/DTD/sodipodi-0.dtd"
   xmlns:inkscape="http://www.inkscape.org/namespaces/inkscape"
   id="svg3337"
   height="24"
   width="24"
   version="1.0"
   inkscape:version="0.48.4 r9939"
   sodipodi:docname="repos.svg">
  <metadata
     id="metadata3086">
    <rdf:RDF>
      <cc:Work
         rdf:about="">
        <dc:format>image/svg+xml</dc:format>
        <dc:type
           rdf:resource="http://purl.org/dc/dcmitype/StillImage" />
      </cc:Work>
    </rdf:RDF>
  </metadata>
  <sodipodi:namedview
     pagecolor="#ffffff"
     bordercolor="#666666"
     borderopacity="1"
     objecttolerance="10"
     gridtolerance="10"
     guidetolerance="10"
     inkscape:pageopacity="0"
     inkscape:pageshadow="2"
     inkscape:window-width="1920"
     inkscape:window-height="1015"
     id="namedview3084"
     showgrid="false"
     inkscape:zoom="9.8333332"
     inkscape:cx="2.5998203"
     inkscape:cy="-2.7496332"
     inkscape:window-x="0"
     inkscape:window-y="38"
     inkscape:window-maximized="1"
     inkscape:current-layer="svg3337" />
  <defs
     id="defs3339">
    <linearGradient
       id="linearGradient2547"
       y2="24.628"
       gradientUnits="userSpaceOnUse"
       x2="20.055"
       gradientTransform="matrix(0.44503,0,0,0.40237,2.8192,3.8499)"
       y1="16.408"
       x1="18.031">
      <stop
         id="stop2687"
         style="stop-color:#fff;stop-opacity:.27451"
         offset="0" />
      <stop
         id="stop2689"
         style="stop-color:#fff;stop-opacity:.078431"
         offset="1" />
    </linearGradient>
    <radialGradient
       id="radialGradient2550"
       gradientUnits="userSpaceOnUse"
       cy="5.5927"
       cx="4.02"
       gradientTransform="matrix(-0.016802,1.3943,-1.7966,-0.021651,14.152,2.1566)"
       r="10.273">
      <stop
         id="stop3754"
         style="stop-color:#fff"
         offset="0" />
      <stop
         id="stop3760"
         style="stop-color:#fff"
         offset=".84754" />
      <stop
         id="stop3756"
         style="stop-color:#fff;stop-opacity:0"
         offset="1" />
    </radialGradient>
    <linearGradient
       id="linearGradient2555"
       y2="4.303"
       gradientUnits="userSpaceOnUse"
       x2="9.7046"
       gradientTransform="matrix(0.99458,0,0,0.99458,-0.33927,1.7178)"
       y1="20.882"
       x1="9.7046">
      <stop
         id="stop2605"
         style="stop-color:#492607;stop-opacity:1;"
         offset="0" />
      <stop
         id="stop2607"
         style="stop-color:#6d421b;stop-opacity:1;"
         offset="1" />
    </linearGradient>
    <radialGradient
       id="radialGradient2553"
       gradientUnits="userSpaceOnUse"
       cy="8.5609"
       cx="7.8186"
       gradientTransform="matrix(1.69,0,0,1.0436,-5.449,0.96175)"
       r="11.268">
      <stop
         id="stop2612"
         style="stop-color:#af5c13;stop-opacity:1;"
         offset="0" />
      <stop
         id="stop2614"
         style="stop-color:#864a15;stop-opacity:1;"
         offset="0.5" />
      <stop
         id="stop2616"
         style="stop-color:#733b09;stop-opacity:1;"
         offset="1" />
    </radialGradient>
    <linearGradient
       id="linearGradient2560"
       y2="23.062"
       gradientUnits="userSpaceOnUse"
       x2="9.8764"
       y1="2.6015"
       x1="9.8764">
      <stop
         id="stop5159"
         style="stop-color:#c1c1c1"
         offset="0" />
      <stop
         id="stop5161"
         style="stop-color:#909090"
         offset="1" />
    </linearGradient>
    <linearGradient
       id="linearGradient2558"
       y2="37.503"
       gradientUnits="userSpaceOnUse"
       x2="-28.531"
       gradientTransform="translate(34.378,-14.501)"
       y1="17.956"
       x1="-28.531">
      <stop
         id="stop11113"
         style="stop-color:#fff"
         offset="0" />
      <stop
         id="stop11115"
         style="stop-color:#cdcdcd"
         offset=".91014" />
      <stop
         id="stop11117"
         style="stop-color:#a1a1a1"
         offset="1" />
    </linearGradient>
    <radialGradient
       id="radialGradient2532"
       xlink:href="#linearGradient5060"
       gradientUnits="userSpaceOnUse"
       cy="486.65"
       cx="605.71"
       gradientTransform="matrix(-2.7744,0,0,1.9697,112.76,-872.89)"
       r="117.14" />
    <linearGradient
       id="linearGradient5060">
      <stop
         id="stop5062"
         offset="0" />
      <stop
         id="stop5064"
         style="stop-opacity:0"
         offset="1" />
    </linearGradient>
    <radialGradient
       id="radialGradient2530"
       xlink:href="#linearGradient5060"
       gradientUnits="userSpaceOnUse"
       cy="486.65"
       cx="605.71"
       gradientTransform="matrix(2.7744,0,0,1.9697,-1891.6,-872.89)"
       r="117.14" />
    <linearGradient
       id="linearGradient2528"
       y2="609.51"
       gradientUnits="userSpaceOnUse"
       x2="302.86"
       gradientTransform="matrix(2.7744,0,0,1.9697,-1892.2,-872.89)"
       y1="366.65"
       x1="302.86">
      <stop
         id="stop5050"
         style="stop-opacity:0"
         offset="0" />
      <stop
         id="stop5056"
         offset=".5" />
      <stop
         id="stop5052"
         style="stop-opacity:0"
         offset="1" />
    </linearGradient>
    <linearGradient
       id="linearGradient2995"
       y2="32.485"
       gradientUnits="userSpaceOnUse"
       x2="24.104"
       gradientTransform="matrix(0.46913,0,0,0.4663,7.7005,6.8085)"
       y1="15.169"
       x1="24.104">
      <stop
         id="stop2266"
         style="stop-color:#d7e866"
         offset="0" />
      <stop
         id="stop2268"
         style="stop-color:#8cab2a"
         offset="1" />
    </linearGradient>
    <linearGradient
       id="linearGradient2992"
       y2="47.273"
       gradientUnits="userSpaceOnUse"
       x2="24.139"
       gradientTransform="matrix(0.2818,0,0,0.2801,12.197,11.015)"
       y1="7.0775"
       x1="24.139">
      <stop
         id="stop4224"
         style="stop-color:#fff"
         offset="0" />
      <stop
         id="stop4226"
         style="stop-color:#fff;stop-opacity:0"
         offset="1" />
    </linearGradient>
    <linearGradient
       inkscape:collect="always"
       xlink:href="#linearGradient2992"
       id="linearGradient3089"
       gradientUnits="userSpaceOnUse"
       gradientTransform="matrix(0.2818,0,0,0.2801,12.197,11.015)"
       x1="24.139"
       y1="7.0775"
       x2="24.139"
       y2="47.273" />
    <linearGradient
       inkscape:collect="always"
       xlink:href="#linearGradient2995"
       id="linearGradient3092"
       gradientUnits="userSpaceOnUse"
       gradientTransform="matrix(0.46913,0,0,0.4663,7.7005,6.8085)"
       x1="24.104"
       y1="15.169"
       x2="24.104"
       y2="32.485" />
    <linearGradient
       inkscape:collect="always"
       xlink:href="#linearGradient2547"
       id="linearGradient3031"
       gradientUnits="userSpaceOnUse"
       gradientTransform="matrix(0.44503,0,0,0.40237,2.855504,3.8498999)"
       x1="18.031"
       y1="16.408"
       x2="20.055"
       y2="24.628" />
    <radialGradient
       inkscape:collect="always"
       xlink:href="#radialGradient2550"
       id="radialGradient3034"
       gradientUnits="userSpaceOnUse"
       gradientTransform="matrix(-0.016802,1.3943,-1.7966,-0.021651,14.188304,2.1565999)"
       cx="4.02"
       cy="5.5927"
       r="10.273" />
    <radialGradient
       inkscape:collect="always"
       xlink:href="#radialGradient2553"
       id="radialGradient3037"
       gradientUnits="userSpaceOnUse"
       gradientTransform="matrix(1.69,0,0,1.0436,-5.412696,0.96174988)"
       cx="7.8186"
       cy="8.5609"
       r="11.268" />
    <linearGradient
       inkscape:collect="always"
       xlink:href="#linearGradient2555"
       id="linearGradient3039"
       gradientUnits="userSpaceOnUse"
       gradientTransform="matrix(0.99458,0,0,0.99458,-0.302966,1.7177999)"
       x1="9.7046"
       y1="20.882"
       x2="9.7046"
       y2="4.303" />
    <linearGradient
       inkscape:collect="always"
       xlink:href="#linearGradient2558"
       id="linearGradient3042"
       gradientUnits="userSpaceOnUse"
       gradientTransform="translate(34.414304,-14.501)"
       x1="-28.531"
       y1="17.956"
       x2="-28.531"
       y2="37.503" />
    <linearGradient
       inkscape:collect="always"
       xlink:href="#linearGradient2560"
       id="linearGradient3044"
       gradientUnits="userSpaceOnUse"
       x1="9.8764"
       y1="2.6015"
       x2="9.8764"
       y2="23.062"
       gradientTransform="translate(0.036304,-1.2166e-7)" />
  </defs>
  <path
     id="path3496"
     style="fill:url(#linearGradient3042);stroke:url(#linearGradient3044);stroke-width:1.01110005;stroke-linecap:round;stroke-linejoin:round"
     d="m 0.713584,2.5694999 c -0.08554,0 -0.15887,0.0927 -0.15887,0.1885 0,5.8692 -0.04308,12.2440001 -0.04914,18.2250001 0.02908,0.895 0.53723,1.505 0.88963,1.508 1.0128,0.009 0.5393,-0.004 1.0486,0 6.4703,-0.016 13.578,-0.078 20.05,-0.094 0.053,0.007 -1.478,-0.108 -1.463,-1.446 0,-4.673 -0.502,-11.1870001 -0.502,-15.8600001 0,-0.1865 -0.015,-0.2905 -0.032,-0.3767 -0.012,-0.0665 -0.028,-0.0989 -0.063,-0.1257 -0.028,-0.0244 -0.055,-0.057 -0.096,-0.0628 h -8.82 c -0.815,0 -1.002,-1.992 -2.2134,-1.992 l -8.5913,0.0357 h -2e-5 z"
     inkscape:connector-curvature="0" />
  <path
     id="path3498"
     style="fill:url(#radialGradient3037);stroke:url(#linearGradient3039);stroke-linecap:round;stroke-linejoin:round"
     d="m 3.535704,6.5470999 c 10.57,0 13.031,5e-4 19.994,-0.0275 0,1.5704 0.258,16.0400001 -0.484,16.0400001 -0.714,0 -14.046,-0.094 -21.009,-0.066 1.4717,0 1.4994,-0.623 1.4994,-15.9470001 v 10e-5 z"
     inkscape:connector-curvature="0" />
  <path
     id="path3211"
     style="opacity:0.4;fill:none;stroke:url(#radialGradient3034);stroke-width:0.98119998"
     d="m 22.975304,7.6087999 c 0,0 -16.832,0.0937 -18.397,-0.0923 C 4.495404,21.3465 4.077404,21.9565 4.077404,21.9565"
     inkscape:connector-curvature="0" />
  <path
     id="path2608"
     style="fill:url(#linearGradient3031);fill-rule:evenodd"
     d="m 4.288004,5.9999999 c -0.6849,0 -1.2517,0.5124 -1.2517,1.1317 V 13.569 c 0.0026,0.116 0.0661,0.247 0.1669,0.327 0.1008,0.081 0.2297,0.115 0.3755,0.101 h 0.0139 l 20.027,-2.867 c 0.232,-0.033 0.414,-0.215 0.417,-0.427 V 7.1316999 c 0,-0.6193 -0.567,-1.1317 -1.252,-1.1317 h -18.496 -3e-4 z"
     inkscape:connector-curvature="0" />
  <rect
     x="2"
     y="4"
     width="7"
     height="1"
     ry="0.5"
     rx="0.53846002"
     style="fill:#e9a161;display:block;fill-opacity:1"
     id="rect2545" />
  <g
     style="font-size:8.79881477px;font-style:normal;font-variant:normal;font-weight:normal;font-stretch:normal;line-height:125%;letter-spacing:0px;word-spacing:0px;fill:#ffffff;fill-opacity:1;stroke:none;font-family:Ubuntu;-inkscape-font-specification:Ubuntu"
     id="text3819"
     transform="matrix(1.0189201,0,0,0.94447316,-0.33967835,0.8271366)">
    <path
       d="m 10.441353,13.02637 c -0.6393833,5e-6 -1.1027871,0.178914 -1.3902124,0.536727 -0.2815641,0.351957 -0.422345,0.835891 -0.4223432,1.451805 -1.8e-6,0.299162 0.035193,0.571925 0.1055858,0.818289 0.070388,0.240503 0.1759742,0.448742 0.3167574,0.624716 0.1407786,0.175978 0.3167547,0.313826 0.5279288,0.413545 0.2111686,0.09385 0.4575356,0.140782 0.7391006,0.140781 0.152509,1e-6 0.281558,-0.0029 0.387148,-0.0088 0.111447,-0.0059 0.208234,-0.0176 0.290361,-0.03519 l 0,-2.120515 1.372615,0 0,3.017994 c -0.16425,0.06452 -0.428214,0.131982 -0.791894,0.202372 -0.363688,0.07626 -0.812428,0.114385 -1.346218,0.114385 -0.4575416,0 -0.8740185,-0.07039 -1.249432,-0.211172 C 8.611198,17.830523 8.294441,17.625217 8.030478,17.355386 7.7665126,17.085557 7.5612071,16.754135 7.414561,16.36112 7.2737795,15.968109 7.203389,15.51937 7.2033895,15.014902 c -5e-7,-0.510328 0.079189,-0.962 0.237568,-1.355018 0.1583778,-0.393009 0.375415,-0.72443 0.6511122,-0.994266 0.2756946,-0.27569 0.5983175,-0.483929 0.9678697,-0.624716 0.3754134,-0.140775 0.7742926,-0.211165 1.1966386,-0.211171 0.287424,6e-6 0.545523,0.02054 0.774296,0.06159 0.23463,0.0352 0.43407,0.0792 0.598319,0.131983 0.170106,0.04693 0.307954,0.09679 0.413545,0.14958 0.111446,0.0528 0.190635,0.09386 0.237568,0.123183 l -0.395947,1.099852 c -0.187713,-0.09971 -0.40475,-0.18477 -0.651112,-0.255166 -0.240506,-0.07625 -0.50447,-0.114379 -0.791894,-0.114384"
       style="font-weight:bold;fill:#ffffff;-inkscape-font-specification:Ubuntu Bold"
       id="path3824"
       inkscape:connector-curvature="0" />
    <path
       d="m 13.636835,11.970512 1.372615,0 0,6.097578 -1.372615,0 0,-6.097578"
       style="font-weight:bold;fill:#ffffff;-inkscape-font-specification:Ubuntu Bold"
       id="path3826"
       inkscape:connector-curvature="0" />
    <path
       d="m 20.943426,11.970512 0,1.170242 -1.838952,0 0,4.927336 -1.372615,0 0,-4.927336 -1.838952,0 0,-1.170242 5.050519,0"
       style="font-weight:bold;fill:#ffffff;-inkscape-font-specification:Ubuntu Bold"
       id="path3828"
       inkscape:connector-curvature="0" />
  </g>
</svg>
