<?xml version="1.0" encoding="UTF-8" standalone="no"?>
<!-- Created with Inkscape (http://www.inkscape.org/) -->

<svg
   xmlns:dc="http://purl.org/dc/elements/1.1/"
   xmlns:cc="http://creativecommons.org/ns#"
   xmlns:rdf="http://www.w3.org/1999/02/22-rdf-syntax-ns#"
   xmlns:svg="http://www.w3.org/2000/svg"
   xmlns="http://www.w3.org/2000/svg"
   xmlns:xlink="http://www.w3.org/1999/xlink"
   xmlns:sodipodi="http://sodipodi.sourceforge.net/DTD/sodipodi-0.dtd"
   xmlns:inkscape="http://www.inkscape.org/namespaces/inkscape"
   width="40"
   height="40"
   id="svg2"
   version="1.1"
   inkscape:version="0.91 r"
   sodipodi:docname="Settings.svg">
  <defs
     id="defs4">
    <linearGradient
       x1="86.133003"
       y1="105.1"
       gradientTransform="matrix(0.32448,0,0,0.32448,3.2333,2.5577)"
       x2="84.639"
       gradientUnits="userSpaceOnUse"
       y2="20.895"
       id="linearGradient2477">
      <stop
         offset="0"
         style="stop-color:#e5e5e5"
         id="stop5130" />
      <stop
         offset="1"
         style="stop-color:#ababab"
         id="stop5132" />
    </linearGradient>
    <linearGradient
       x1="37.201"
       y1="1"
       x2="37.201"
       gradientUnits="userSpaceOnUse"
       y2="45"
       id="linearGradient2482">
      <stop
         offset="0"
         style="stop-color:#aaa"
         id="stop3399" />
      <stop
         offset="1"
         style="stop-color:#8c8c8c"
         id="stop3401" />
    </linearGradient>
    <linearGradient
       x1="20.759001"
       y1="1"
       x2="20.759001"
       gradientUnits="userSpaceOnUse"
       y2="45.016998"
       id="linearGradient2480">
      <stop
         offset="0"
         style="stop-color:#f6f6f6"
         id="stop3311" />
      <stop
         offset="1"
         style="stop-color:#d2d2d2"
         id="stop3313" />
    </linearGradient>
    <radialGradient
       r="7.2284002"
       gradientTransform="matrix(3.3202,0,0,0.69171,1.7455,-7.9211)"
       cx="6.7027001"
       cy="73.615997"
       gradientUnits="userSpaceOnUse"
       id="radialGradient2485">
      <stop
         offset="0"
         id="stop10693" />
      <stop
         offset="1"
         style="stop-opacity:0"
         id="stop10695" />
    </radialGradient>
    <linearGradient
       x1="22.76"
       y1="22.943001"
       gradientTransform="matrix(1.1627,0,0,1.203,9.5353,-3.2585)"
       x2="22.76"
       gradientUnits="userSpaceOnUse"
       y2="42.242001"
       id="linearGradient2907">
      <stop
         offset="0"
         style="stop-color:#cc7032"
         id="stop4178-6-4" />
      <stop
         offset=".73855"
         style="stop-color:#bb2d13"
         id="stop3223-8" />
      <stop
         offset="1"
         style="stop-color:#a87300;stop-opacity:0"
         id="stop4180-1-1" />
    </linearGradient>
    <linearGradient
       x1="10.912"
       y1="23.891001"
       gradientTransform="matrix(0,0.60568,-0.58541,0,49.985,17.732)"
       x2="49.243"
       gradientUnits="userSpaceOnUse"
       y2="23.891001"
       id="linearGradient2905">
      <stop
         offset="0"
         style="stop-color:#ecb56c"
         id="stop4170-6-1" />
      <stop
         offset=".74264"
         style="stop-color:#e86225"
         id="stop4172-1-1" />
      <stop
         offset="1"
         style="stop-color:#b07c0b;stop-opacity:0"
         id="stop4174-5-5" />
    </linearGradient>
    <linearGradient
       x1="22.719999"
       y1="26.023001"
       gradientTransform="matrix(0,-0.70247,-0.67583,0,53.586,48.86)"
       x2="1.4802001"
       gradientUnits="userSpaceOnUse"
       y2="26.023001"
       id="linearGradient2902">
      <stop
         offset="0"
         style="stop-color:#fff"
         id="stop4224" />
      <stop
         offset="1"
         style="stop-color:#fff;stop-opacity:0"
         id="stop4226" />
    </linearGradient>
    <linearGradient
       inkscape:collect="always"
       xlink:href="#linearGradient2902"
       id="linearGradient10709"
       gradientUnits="userSpaceOnUse"
       gradientTransform="matrix(0,-0.70247,-0.67583,0,63.068013,1039.6689)"
       x1="22.719999"
       y1="26.023001"
       x2="1.4802001"
       y2="26.023001" />
    <linearGradient
       inkscape:collect="always"
       xlink:href="#linearGradient2905"
       id="linearGradient10712"
       gradientUnits="userSpaceOnUse"
       gradientTransform="matrix(0,0.60568,-0.58541,0,59.467013,1008.5409)"
       x1="10.912"
       y1="23.891001"
       x2="49.243"
       y2="23.891001" />
    <linearGradient
       inkscape:collect="always"
       xlink:href="#linearGradient2907"
       id="linearGradient10714"
       gradientUnits="userSpaceOnUse"
       gradientTransform="matrix(1.1627,0,0,1.203,19.017313,987.55043)"
       x1="22.76"
       y1="22.943001"
       x2="22.76"
       y2="42.242001" />
    <radialGradient
       inkscape:collect="always"
       xlink:href="#radialGradient2485"
       id="radialGradient10721"
       gradientUnits="userSpaceOnUse"
       gradientTransform="matrix(3.3202,0,0,0.69171,1.7455,-7.9211)"
       cx="6.7027001"
       cy="73.615997"
       r="7.2284002" />
    <linearGradient
       inkscape:collect="always"
       xlink:href="#linearGradient2480"
       id="linearGradient10723"
       gradientUnits="userSpaceOnUse"
       x1="20.759001"
       y1="1"
       x2="20.759001"
       y2="45.016998" />
    <linearGradient
       inkscape:collect="always"
       xlink:href="#linearGradient2482"
       id="linearGradient10725"
       gradientUnits="userSpaceOnUse"
       x1="37.201"
       y1="1"
       x2="37.201"
       y2="45" />
    <linearGradient
       inkscape:collect="always"
       xlink:href="#linearGradient2477"
       id="linearGradient10727"
       gradientUnits="userSpaceOnUse"
       gradientTransform="matrix(0.32448,0,0,0.32448,3.2333,2.5577)"
       x1="86.133003"
       y1="105.1"
       x2="84.639"
       y2="20.895" />
    <radialGradient
       inkscape:collect="always"
       xlink:href="#radialGradient2485"
       id="radialGradient10739"
       gradientUnits="userSpaceOnUse"
       gradientTransform="matrix(3.3202,0,0,0.69171,11.227513,982.88783)"
       cx="6.7027001"
       cy="73.615997"
       r="7.2284002" />
  </defs>
  <sodipodi:namedview
     id="base"
     pagecolor="#ffffff"
     bordercolor="#666666"
     borderopacity="1.0"
     inkscape:pageopacity="0.0"
     inkscape:pageshadow="2"
     inkscape:zoom="3.959798"
     inkscape:cx="-120.77889"
     inkscape:cy="42.238726"
     inkscape:document-units="px"
     inkscape:current-layer="layer1"
     showgrid="false"
     inkscape:showpageshadow="false"
     inkscape:window-width="1864"
     inkscape:window-height="1016"
     inkscape:window-x="56"
     inkscape:window-y="36"
     inkscape:window-maximized="1" />
  <metadata
     id="metadata7">
    <rdf:RDF>
      <cc:Work
         rdf:about="">
        <dc:format>image/svg+xml</dc:format>
        <dc:type
           rdf:resource="http://purl.org/dc/dcmitype/StillImage" />
        <dc:title></dc:title>
      </cc:Work>
    </rdf:RDF>
  </metadata>
  <g
     inkscape:label="Calque 1"
     inkscape:groupmode="layer"
     id="layer1"
     transform="translate(0,-1012.3622)">
    <path
       style="display:block;fill:#000000;fill-opacity:1;stroke:none"
       d="m 17.376454,1013.3627 c -0.747628,0 -1.353197,0.6202 -1.353197,1.3808 l 0,2.6787 c -1.337071,0.3563 -2.615152,0.8943 -3.783431,1.5741 l -1.905524,-1.9055 c -0.268651,-0.2689 -0.590767,-0.4113 -0.938953,-0.4142 -0.3481867,0 -0.7023375,0.1222 -0.9665693,0.3866 l -3.7281982,3.7281 c -0.5287304,0.5292 -0.5102164,1.3683 0.027616,1.9055 l 1.9055233,1.9055 c -0.6798465,1.1682 -1.2179,2.4464 -1.5741279,3.7834 l -2.6787791,0 C 1.6201953,1028.3857 1,1028.9913 1,1029.7389 l 0,5.247 c 0,0.7484 0.6202836,1.3532 1.3808139,1.3532 l 2.6787791,0 c 0.3562367,1.337 0.8943697,2.6145 1.5741279,3.7833 l -1.9055233,1.9056 c -0.5378325,0.5373 -0.5563465,1.376 -0.027616,1.9054 l 3.7281982,3.7282 c 0.5287302,0.5287 1.3677782,0.5098 1.9055222,-0.028 l 1.905524,-1.9055 c 1.168897,0.6798 2.446448,1.2179 3.783431,1.5741 l 0,2.6788 c 0,0.7605 0.605498,1.3808 1.353197,1.3808 l 5.247093,0 c 0.748512,0 1.353198,-0.6209 1.353198,-1.3808 l 0,-2.6788 c 1.336981,-0.3562 2.61462,-0.8943 3.78343,-1.5741 l 1.905524,1.9055 c 0.537769,0.5377 1.376792,0.5565 1.905522,0.028 l 3.728199,-3.7282 c 0.52873,-0.5287 0.510154,-1.3677 -0.02762,-1.9054 l -1.905524,-1.9056 c 0.679581,-1.1682 1.217989,-2.4463 1.574128,-3.7833 l 2.67878,0 c 0.760521,0 1.380813,-0.6056 1.380813,-1.3532 l 0,-5.247 c 0,-0.7485 -0.620814,-1.3532 -1.380813,-1.3532 l -2.67878,0 c -0.357023,-1.337 -0.894547,-2.6152 -1.574128,-3.7834 l 1.905524,-1.9055 c 0.537771,-0.5377 0.556355,-1.3767 0.02762,-1.9055 l -3.728199,-3.7281 c -0.529348,-0.5287 -1.368221,-0.5102 -1.905522,0.027 l -1.905524,1.9055 c -1.168279,-0.6799 -2.44636,-1.2179 -3.78343,-1.5741 l 0,-2.6788 c 0,-0.7606 -0.60557,-1.3808 -1.353198,-1.3808 l -5.247093,0 z M 20,1019.9905 c 6.818067,0 12.372094,5.5539 12.372094,12.3719 0,6.8179 -5.554108,12.3719 -12.372094,12.3719 -6.817985,0 -12.372093,-5.554 -12.372093,-12.3719 0,-6.8179 5.554108,-12.3719 12.372093,-12.3719 z m 0,0.8837 c -6.338675,0 -11.4883717,5.1497 -11.4883717,11.4882 0,6.3386 5.1496967,11.4882 11.4883717,11.4882 6.338676,0 11.488372,-5.1496 11.488372,-11.4882 0,-6.3387 -5.1496,-11.4882 -11.488372,-11.4882 z m 0,5.7441 c 3.170792,0 5.744187,2.5734 5.744187,5.7441 0,3.1707 -2.573395,5.7441 -5.744187,5.7441 -3.170791,0 -5.744185,-2.5734 -5.744185,-5.7441 0,-3.1707 2.573394,-5.7441 5.744185,-5.7441 z"
       id="rect3267"
       inkscape:connector-curvature="0" />
  </g>
</svg>
