<?xml version="1.0" encoding="UTF-8" standalone="no"?>
<!-- Created with Inkscape (http://www.inkscape.org/) -->

<svg
   xmlns:dc="http://purl.org/dc/elements/1.1/"
   xmlns:cc="http://creativecommons.org/ns#"
   xmlns:rdf="http://www.w3.org/1999/02/22-rdf-syntax-ns#"
   xmlns:svg="http://www.w3.org/2000/svg"
   xmlns="http://www.w3.org/2000/svg"
   xmlns:sodipodi="http://sodipodi.sourceforge.net/DTD/sodipodi-0.dtd"
   xmlns:inkscape="http://www.inkscape.org/namespaces/inkscape"
   width="48"
   height="48"
   viewBox="0 0 48 48.000001"
   id="svg2"
   version="1.1"
   inkscape:version="0.91 r13725"
   sodipodi:docname="sun.svg">
  <defs
     id="defs4" />
  <sodipodi:namedview
     id="base"
     pagecolor="#ffffff"
     bordercolor="#666666"
     borderopacity="1.0"
     inkscape:pageopacity="0.0"
     inkscape:pageshadow="2"
     inkscape:zoom="9.8553008"
     inkscape:cx="25.324129"
     inkscape:cy="34.783521"
     inkscape:document-units="px"
     inkscape:current-layer="layer1"
     showgrid="false"
     units="px"
     inkscape:showpageshadow="false"
     inkscape:window-width="1864"
     inkscape:window-height="1018"
     inkscape:window-x="56"
     inkscape:window-y="32"
     inkscape:window-maximized="1" />
  <metadata
     id="metadata7">
    <rdf:RDF>
      <cc:Work
         rdf:about="">
        <dc:format>image/svg+xml</dc:format>
        <dc:type
           rdf:resource="http://purl.org/dc/dcmitype/StillImage" />
        <dc:title></dc:title>
      </cc:Work>
    </rdf:RDF>
  </metadata>
  <g
     inkscape:label="Layer 1"
     inkscape:groupmode="layer"
     id="layer1"
     transform="translate(0,-1004.3622)">
    <path
       style="opacity:1;fill:#000000;fill-opacity:1;stroke:none;stroke-width:4;stroke-linecap:round;stroke-linejoin:miter;stroke-miterlimit:4;stroke-dasharray:none;stroke-opacity:1"
       d="M 21.945312 1.3046875 C 21.556831 1.3398553 19.018181 4.6310452 17.935547 5.8105469 A 19.196745 19.196745 0 0 1 24 4.8027344 A 19.196745 19.196745 0 0 1 26.697266 5.0175781 C 25.41977 4.0509386 22.333689 1.2695292 21.945312 1.3046875 z M 33.568359 3.3183594 C 33.217203 3.1558991 29.435095 4.7091207 27.882812 5.203125 A 19.196745 19.196745 0 0 1 35.828125 8.9082031 C 35.204874 7.4311928 33.922169 3.4820474 33.568359 3.3183594 z M 11.248047 5.3398438 C 11.052512 5.3302373 10.920696 5.339468 10.873047 5.3730469 C 10.554705 5.5973854 10.004192 9.7029441 9.65625 11.271484 A 19.196745 19.196745 0 0 1 16.818359 6.2070312 C 15.452555 6.0333846 12.353735 5.3941651 11.248047 5.3398438 z M 36.728516 9.65625 A 19.196745 19.196745 0 0 1 41.792969 16.818359 C 41.997324 15.211021 42.85041 11.190138 42.626953 10.873047 C 42.402615 10.554705 38.297056 10.004192 36.728516 9.65625 z M 8.9082031 12.171875 C 7.4311928 12.795126 3.4820474 14.077831 3.3183594 14.431641 C 3.1558991 14.782797 4.7091207 18.564905 5.203125 20.117188 A 19.196745 19.196745 0 0 1 8.9082031 12.171875 z M 42.189453 17.935547 A 19.196745 19.196745 0 0 1 43.197266 24 A 19.196745 19.196745 0 0 1 42.982422 26.697266 C 43.949061 25.41977 46.730471 22.333689 46.695312 21.945312 C 46.660145 21.556831 43.368955 19.018181 42.189453 17.935547 z M 5.0175781 21.302734 C 4.0509386 22.58023 1.2695292 25.666311 1.3046875 26.054688 C 1.3398553 26.443169 4.6310452 28.981819 5.8105469 30.064453 A 19.196745 19.196745 0 0 1 4.8027344 24 A 19.196745 19.196745 0 0 1 5.0175781 21.302734 z M 42.796875 27.882812 A 19.196745 19.196745 0 0 1 39.091797 35.828125 C 40.568807 35.204874 44.517953 33.922169 44.681641 33.568359 C 44.844101 33.217203 43.290879 29.435095 42.796875 27.882812 z M 6.2070312 31.181641 C 6.0026762 32.788979 5.1495898 36.809862 5.3730469 37.126953 C 5.5973854 37.445295 9.7029441 37.995808 11.271484 38.34375 A 19.196745 19.196745 0 0 1 6.2070312 31.181641 z M 38.34375 36.728516 A 19.196745 19.196745 0 0 1 31.181641 41.792969 C 32.788979 41.997324 36.809862 42.85041 37.126953 42.626953 C 37.445295 42.402615 37.995808 38.297056 38.34375 36.728516 z M 12.171875 39.091797 C 12.795126 40.568807 14.077831 44.517953 14.431641 44.681641 C 14.782797 44.844101 18.564905 43.290879 20.117188 42.796875 A 19.196745 19.196745 0 0 1 12.171875 39.091797 z M 30.064453 42.189453 A 19.196745 19.196745 0 0 1 24 43.197266 A 19.196745 19.196745 0 0 1 21.302734 42.982422 C 22.58023 43.949061 25.666311 46.730471 26.054688 46.695312 C 26.443169 46.660145 28.981819 43.368955 30.064453 42.189453 z "
       transform="translate(0,1004.3622)"
       id="path4259" />
    <circle
       r="16.90369"
       cy="1028.3622"
       cx="24"
       id="circle4261"
       style="opacity:1;fill:#000000;fill-opacity:1;stroke:none;stroke-width:4;stroke-linecap:round;stroke-linejoin:miter;stroke-miterlimit:4;stroke-dasharray:none;stroke-opacity:1" />
  </g>
</svg>
