<?xml version="1.0" encoding="UTF-8" standalone="no"?>
<!-- Created with Inkscape (http://www.inkscape.org/) -->

<svg xmlns:dc="http://purl.org/dc/elements/1.1/" xmlns:cc="http://creativecommons.org/ns#" xmlns:rdf="http://www.w3.org/1999/02/22-rdf-syntax-ns#" xmlns:svg="http://www.w3.org/2000/svg" xmlns="http://www.w3.org/2000/svg" xmlns:sodipodi="http://sodipodi.sourceforge.net/DTD/sodipodi-0.dtd" xmlns:inkscape="http://www.inkscape.org/namespaces/inkscape" width="64" height="64" id="svg2" version="1.1" inkscape:version="0.48.4 r9939" sodipodi:docname="Warning.svg">
    <defs id="defs4" />
    <sodipodi:namedview id="base" pagecolor="#ffffff" bordercolor="#666666" borderopacity="1.0" inkscape:pageopacity="0.0" inkscape:pageshadow="2" inkscape:zoom="7.9195959" inkscape:cx="10.783391" inkscape:cy="31.596402" inkscape:document-units="px" inkscape:current-layer="layer1" showgrid="false" inkscape:showpageshadow="false" inkscape:window-width="1310" inkscape:window-height="712" inkscape:window-x="56" inkscape:window-y="28" inkscape:window-maximized="1" />
    <metadata id="metadata7">
        <rdf:RDF>
            <cc:Work rdf:about="">
                <dc:format>image/svg+xml</dc:format>
                <dc:type rdf:resource="http://purl.org/dc/dcmitype/StillImage" />
                <dc:title />
            </cc:Work>
        </rdf:RDF>
    </metadata>
    <g inkscape:label="Calque 1" inkscape:groupmode="layer" id="layer1" transform="translate(0,-988.36218)">
        <path style="font-size:medium;font-style:normal;font-variant:normal;font-weight:normal;font-stretch:normal;text-indent:0;text-align:start;text-decoration:none;line-height:normal;letter-spacing:normal;word-spacing:normal;text-transform:none;direction:ltr;block-progression:tb;writing-mode:lr-tb;text-anchor:start;baseline-shift:baseline;color:#000000;fill:#000000;fill-opacity:1;stroke:none;stroke-width:3.36601257;marker:none;visibility:visible;display:inline;overflow:visible;enable-background:accumulate;font-family:Sans;-inkscape-font-specification:Sans" d="M 31.84375,993.14343 C 31.769132,993.15507 31.694854,993.17747 31.625,993.20593 31.603032,993.21482 31.583828,993.22684 31.5625,993.23718 31.49308,993.27168 31.434961,993.31301 31.375,993.36218 31.345187,993.38594 31.308163,993.39775 31.28125,993.42468 31.218469,993.48783 31.168509,993.56563 31.125,993.64343 L 29.4375,996.58093 15.90625,1020.2684 2.375,1043.9247 2.375,1043.9559 0.6875,1046.8622 C 0.34202982,1047.4604 0.84061791,1048.3468 1.53125,1048.3622 L 4.875,1048.3622 4.9375,1048.3622 32,1048.3622 59.0625,1048.3622 59.125,1048.3622 62.46875,1048.3622 C 63.159382,1048.3468 63.65797,1047.4604 63.3125,1046.8622 L 61.625,1043.9559 61.625,1043.9247 48.09375,1020.2684 34.5625,996.58093 32.875,993.64343 C 32.832364,993.56706 32.780313,993.48627 32.71875,993.42468 32.694335,993.40012 32.651791,993.38415 32.625,993.36218 32.405811,993.18753 32.12132,993.09901 31.84375,993.14343 z M 29.0625,1007.5497 34.8125,1007.5497 34.9375,1007.5497 C 35.090201,1007.5463 35.24818,1007.5533 35.34375,1007.5809 35.718281,1007.6893 35.700401,1008.0192 35.78125,1008.4559 L 35.78125,1022.1122 35,1030.0184 29,1030.0184 28.21875,1022.1122 28.21875,1008.6434 C 28.215258,1008.5629 28.222366,1008.5251 28.21875,1008.4559 28.299598,1008.0193 28.281719,1007.6893 28.65625,1007.5809 28.770465,1007.5711 28.884007,1007.5497 29.0625,1007.5497 z M 28.5625,1035.0809 C 28.679572,1035.0775 28.841869,1035.0809 29.03125,1035.0809 29.089555,1035.0851 29.122252,1035.0776 29.1875,1035.0809 L 34.8125,1035.0809 C 34.877748,1035.0776 34.910445,1035.0851 34.96875,1035.0809 35.325231,1035.0809 35.534456,1035.0815 35.65625,1035.1434 35.663862,1035.1473 35.680614,1035.1389 35.6875,1035.1434 35.70096,1035.1613 35.709165,1035.1825 35.71875,1035.2059 35.74431,1035.2685 35.774691,1035.3771 35.78125,1035.4872 35.787809,1035.5972 35.78125,1035.7242 35.78125,1035.8934 L 35.78125,1041.4247 C 35.798736,1041.6381 35.795168,1041.7831 35.78125,1041.8934 35.769452,1042.0061 35.739126,1042.0664 35.6875,1042.1122 35.566868,1042.193 35.333695,1042.1747 34.9375,1042.1747 L 29.0625,1042.1747 C 28.666305,1042.1747 28.433132,1042.193 28.3125,1042.1122 28.260874,1042.0664 28.230548,1042.0061 28.21875,1041.8934 28.206952,1041.7808 28.21875,1041.6294 28.21875,1041.4247 L 28.21875,1035.8934 C 28.21875,1035.8544 28.218656,1035.8353 28.21875,1035.7997 28.207249,1035.6633 28.21749,1035.5773 28.21875,1035.4872 28.225309,1035.3771 28.25569,1035.2685 28.28125,1035.2059 28.296297,1035.1834 28.290551,1035.1579 28.3125,1035.1434 28.316987,1035.1375 28.338784,1035.1488 28.34375,1035.1434 28.400841,1035.1144 28.459201,1035.084 28.5625,1035.0809 z" id="path2990" inkscape:connector-curvature="0" />
    </g>
</svg>
