<?xml version="1.0" encoding="UTF-8" standalone="no"?>
<!-- Created with Inkscape (http://www.inkscape.org/) -->

<svg
   xmlns:dc="http://purl.org/dc/elements/1.1/"
   xmlns:cc="http://creativecommons.org/ns#"
   xmlns:rdf="http://www.w3.org/1999/02/22-rdf-syntax-ns#"
   xmlns:svg="http://www.w3.org/2000/svg"
   xmlns="http://www.w3.org/2000/svg"
   xmlns:sodipodi="http://sodipodi.sourceforge.net/DTD/sodipodi-0.dtd"
   xmlns:inkscape="http://www.inkscape.org/namespaces/inkscape"
   width="40.578594"
   height="47.872971"
   id="svg3081"
   version="1.1"
   inkscape:version="0.48.2 r9819"
   sodipodi:docname="aftenposten.svg">
  <defs
     id="defs3083" />
  <sodipodi:namedview
     id="base"
     pagecolor="#ffffff"
     bordercolor="#666666"
     borderopacity="1.0"
     inkscape:pageopacity="0.0"
     inkscape:pageshadow="2"
     inkscape:zoom="5.6"
     inkscape:cx="28.385744"
     inkscape:cy="19.290628"
     inkscape:document-units="px"
     inkscape:current-layer="layer1"
     showgrid="false"
     inkscape:window-width="938"
     inkscape:window-height="673"
     inkscape:window-x="376"
     inkscape:window-y="161"
     inkscape:window-maximized="0"
     fit-margin-top="0"
     fit-margin-left="0"
     fit-margin-right="0"
     fit-margin-bottom="0" />
  <metadata
     id="metadata3086">
    <rdf:RDF>
      <cc:Work
         rdf:about="">
        <dc:format>image/svg+xml</dc:format>
        <dc:type
           rdf:resource="http://purl.org/dc/dcmitype/StillImage" />
        <dc:title></dc:title>
      </cc:Work>
    </rdf:RDF>
  </metadata>
  <g
     inkscape:label="Layer 1"
     inkscape:groupmode="layer"
     id="layer1"
     transform="translate(-354.71059,-508.42571)">
    <path
       inkscape:connector-curvature="0"
       style="fill:#ffffff;fill-opacity:1;fill-rule:evenodd;stroke:none"
       id="path2478"
       d="m 373.8147,523.26071 c 0,0 0.0785,-3.8403 0.0738,-5.3955 -0.007,-1.7988 1.65345,-3.0762 3.62565,-3.0762 1.5681,0 3.3669,1.0161 3.5112,2.931 0.1041,1.3923 0.0867,4.9899 0.0867,4.9899 l 0,7.1307 -7.31496,0 0,-5.5182 0.0176,-1.0617 z m -11.04258,22.0617 c 0,-1.0185 0.35274,-1.554 0.76992,-1.8282 0.0644,-0.0609 0.1371,-0.1008 0.21444,-0.123 0.54729,-0.2463 1.11915,-0.1383 1.11915,-0.1383 0.0281,0.3678 0.0176,1.2141 0.0176,1.2141 0,1.8561 -0.8871,2.2629 -2.10234,2.2113 -0.034,-0.4161 -0.0188,-1.3359 -0.0188,-1.3359 z m 18.34926,-5.6613 c 0.0258,1.5888 -0.2109,3.9654 -2.2254,6.2388 -1.8528,2.0955 -4.2153,2.8512 -6.31293,3.4584 -2.46093,0.7077 -6.34335,0.5649 -8.46327,-0.8589 -0.5754,-0.3846 -0.92463,-0.7524 -1.12617,-1.1076 0.66327,0.2355 1.64178,0.2355 2.31444,0.2355 3.8379,0 8.49492,-1.392 8.49492,-5.9964 l 0,-7.4883 -0.006,0.002 0,-0.8202 7.33116,0 0,6.3714 c -0.004,-0.0222 -0.007,-0.0351 -0.007,-0.0351 z m 0.0303,9.5904 c 0,3.4104 2.5362,5.5455 5.433,7.0233 l 8.7045,-6.1092 c 0,0 -0.9291,-1.8726 -0.9291,-1.6371 0,0.3492 -0.0258,0.798 -0.2415,1.179 -0.3093,0.5484 -1.1157,0.8496 -1.9815,0.8625 -0.9492,0.0186 -1.9677,-0.4206 -1.9689,-1.5645 l -0.0669,-2.7891 -9e-4,0 0,-16.7166 0.002,0 c 0,0 0,-5.8185 0,-10.3173 0,-4.4988 2.3004,-4.7016 2.3004,-4.7016 l 0,-0.4944 c -5.10808,-0.1689 -5.91898,-5.5608 -5.91898,-5.5608 l -0.4572,0 c -1.35,2.133 -5.2254,3.5862 -9.0807,4.3302 -6.84729,1.3206 -12.10317,1.1427 -12.10317,7.9395 l 0,0.0129 -0.0164,0 0,20.3706 0.008,0 c 0.005,0.3294 0.008,0.6318 0.0118,0.9141 -0.43827,-0.6234 -1.74255,-1.7964 -5.1996,-1.3206 -3.44654,0.47103 -4.41566,3.06093 -4.66175,3.83913 -0.44649,1.4142 -0.53205,5.6283 1.19412,7.9017 1.54572,2.0379 4.1883,4.4862 10.23867,3.7524 6.05157,-0.7335 9.93387,-4.3242 11.78097,-6.2613 1.4565,-1.5303 2.3625,-2.652 2.9295,-3.4557 l 0.0234,2.8029" />
  </g>
</svg>
