<?xml version="1.0" encoding="UTF-8" standalone="no"?>
<!-- Created with Inkscape (http://www.inkscape.org/) -->

<svg xmlns:dc="http://purl.org/dc/elements/1.1/" xmlns:cc="http://creativecommons.org/ns#" xmlns:rdf="http://www.w3.org/1999/02/22-rdf-syntax-ns#" xmlns:svg="http://www.w3.org/2000/svg" xmlns="http://www.w3.org/2000/svg" xmlns:sodipodi="http://sodipodi.sourceforge.net/DTD/sodipodi-0.dtd" xmlns:inkscape="http://www.inkscape.org/namespaces/inkscape" width="48" height="48" id="svg2" version="1.1" inkscape:version="0.48.4 r9939" sodipodi:docname="logo.svg">
    <defs id="defs4" />
    <sodipodi:namedview id="base" pagecolor="#ffffff" bordercolor="#666666" borderopacity="1.0" inkscape:pageopacity="0.0" inkscape:pageshadow="2" inkscape:zoom="5.6568542" inkscape:cx="6.8500125" inkscape:cy="29.683105" inkscape:document-units="px" inkscape:current-layer="layer1" showgrid="false" inkscape:window-width="1317" inkscape:window-height="744" inkscape:window-x="49" inkscape:window-y="24" inkscape:window-maximized="1" fit-margin-top="0" fit-margin-left="0" fit-margin-right="0" fit-margin-bottom="0" />
    <metadata id="metadata7">
        <rdf:RDF>
            <cc:Work rdf:about="">
                <dc:format>image/svg+xml</dc:format>
                <dc:type rdf:resource="http://purl.org/dc/dcmitype/StillImage" />
                <dc:title></dc:title>
            </cc:Work>
        </rdf:RDF>
    </metadata>
    <g inkscape:label="Calque 1" inkscape:groupmode="layer" id="layer1" transform="translate(-100,-304.36218)">
        <rect style="fill:#008000;fill-opacity:1;stroke:#003c00;stroke-width:1.99999988;stroke-linecap:round;stroke-linejoin:miter;stroke-miterlimit:4;stroke-opacity:1;stroke-dasharray:none;stroke-dashoffset:0" id="rect4115" width="46" height="46" x="101" y="305.36218" rx="4" ry="4" />
        <path inkscape:connector-curvature="0" id="path4890" d="M 125.30718,308.55318 C 124.90183,308.56105 124.49173,308.56891 124.08843,308.61568 L 123.74468,308.61568 C 119.06636,308.72477 114.89237,312.01349 113.08843,316.02193 110.758,320.88685 110.56804,326.35188 111.58843,331.39693 112.54988,335.77441 115.33155,340.28131 120.15093,341.52193 121.614,341.61578 122.52051,341.96962 122.58843,343.45943 123.42792,346.12396 125.92448,347.94164 128.71343,348.64693 130.25809,349.03681 132.09015,349.45166 133.58843,349.30318 134.56337,349.47386 135.33597,349.32466 135.30718,348.17818 L 136.08843,344.89693 C 133.55675,344.65645 130.54306,344.50344 128.86968,342.52193 127.31073,340.79594 130.53125,340.81761 131.49468,339.74068 135.8903,336.6787 137.51034,331.36056 137.80718,326.55318 138.15268,321.08801 137.1476,315.14352 132.96343,311.24068 130.97884,309.38387 128.14464,308.49811 125.30718,308.55318 z M 124.27593,313.74068 C 127.65535,313.76795 129.84427,316.65134 130.65093,319.42818 131.74232,323.38062 131.71601,327.77178 130.21343,331.74068 129.26817,334.18711 127.00896,336.65568 124.08843,336.70943 120.73883,336.36658 118.69547,333.41869 118.02593,330.55318 117.08635,326.51836 117.10814,322.06493 118.90093,318.11568 119.88089,316.02388 121.80625,314.11605 124.27593,313.74068 z M 121.58843,317.74068 121.61968,321.74068 118.80718,321.24068 118.46343,322.67818 121.65093,323.20943 121.65093,326.42818 118.77593,325.92818 118.43218,327.33443 121.68218,327.89693 121.71343,331.89693 123.15093,332.14693 123.11968,328.14693 125.77593,328.61568 125.80718,332.58443 127.27593,332.83443 127.24468,328.86568 130.08843,329.33443 130.43218,327.92818 127.24468,327.39693 127.21343,324.17818 130.11968,324.67818 130.46343,323.24068 127.18218,322.67818 127.18218,318.67818 125.71343,318.42818 125.74468,322.42818 123.08843,321.99068 123.05718,317.99068 121.58843,317.74068 z M 123.08843,323.45943 125.74468,323.92818 125.77593,327.11568 123.11968,326.67818 123.08843,323.45943 z" style="font-size:58.39017487px;font-style:normal;font-variant:normal;font-weight:500;font-stretch:normal;line-height:125%;letter-spacing:0px;word-spacing:0px;fill:#004b00;fill-opacity:1;stroke:none;font-family:Ubuntu;-inkscape-font-specification:Ubuntu Medium" />
        <path style="font-size:58.39017487px;font-style:normal;font-variant:normal;font-weight:500;font-stretch:normal;line-height:125%;letter-spacing:0px;word-spacing:0px;fill:#ffffff;fill-opacity:1;stroke:none;font-family:Ubuntu;-inkscape-font-specification:Ubuntu Medium" d="M 124.30718,307.55318 C 123.90183,307.56105 123.49173,307.56891 123.08843,307.61568 L 122.74468,307.61568 C 118.06636,307.72477 113.89237,311.01349 112.08843,315.02193 109.758,319.88685 109.56804,325.35188 110.58843,330.39693 111.54988,334.77441 114.33155,339.28131 119.15093,340.52193 120.614,340.61578 121.52051,340.96962 121.58843,342.45943 122.42792,345.12396 124.92448,346.94164 127.71343,347.64693 129.25809,348.03681 131.09015,348.45166 132.58843,348.30318 133.56337,348.47386 134.33597,348.32466 134.30718,347.17818 L 135.08843,343.89693 C 132.55675,343.65645 129.54306,343.50344 127.86968,341.52193 126.31073,339.79594 129.53125,339.81761 130.49468,338.74068 134.8903,335.6787 136.51034,330.36056 136.80718,325.55318 137.15268,320.08801 136.1476,314.14352 131.96343,310.24068 129.97884,308.38387 127.14464,307.49811 124.30718,307.55318 z M 123.27593,312.74068 C 126.65535,312.76795 128.84427,315.65134 129.65093,318.42818 130.74232,322.38062 130.71601,326.77178 129.21343,330.74068 128.26817,333.18711 126.00896,335.65568 123.08843,335.70943 119.73883,335.36658 117.69547,332.41869 117.02593,329.55318 116.08635,325.51836 116.10814,321.06493 117.90093,317.11568 118.88089,315.02388 120.80625,313.11605 123.27593,312.74068 z M 120.58843,316.74068 120.61968,320.74068 117.80718,320.24068 117.46343,321.67818 120.65093,322.20943 120.65093,325.42818 117.77593,324.92818 117.43218,326.33443 120.68218,326.89693 120.71343,330.89693 122.15093,331.14693 122.11968,327.14693 124.77593,327.61568 124.80718,331.58443 126.27593,331.83443 126.24468,327.86568 129.08843,328.33443 129.43218,326.92818 126.24468,326.39693 126.21343,323.17818 129.11968,323.67818 129.46343,322.24068 126.18218,321.67818 126.18218,317.67818 124.71343,317.42818 124.74468,321.42818 122.08843,320.99068 122.05718,316.99068 120.58843,316.74068 z M 122.08843,322.45943 124.74468,322.92818 124.77593,326.11568 122.11968,325.67818 122.08843,322.45943 z" id="text4092" inkscape:connector-curvature="0" />
        <rect ry="2" rx="2" y="306.86218" x="102.5" height="43" width="43" id="rect4888" style="fill:none;stroke:#00a400;stroke-width:1;stroke-linecap:round;stroke-linejoin:miter;stroke-miterlimit:4;stroke-opacity:1;stroke-dasharray:none;stroke-dashoffset:0" />
    </g>
</svg>
