<?xml version="1.0" encoding="UTF-8" standalone="no"?>
<!-- Created with Inkscape (http://www.inkscape.org/) -->

<svg xmlns:dc="http://purl.org/dc/elements/1.1/" xmlns:cc="http://creativecommons.org/ns#" xmlns:rdf="http://www.w3.org/1999/02/22-rdf-syntax-ns#" xmlns:svg="http://www.w3.org/2000/svg" xmlns="http://www.w3.org/2000/svg" xmlns:sodipodi="http://sodipodi.sourceforge.net/DTD/sodipodi-0.dtd" xmlns:inkscape="http://www.inkscape.org/namespaces/inkscape" width="24" height="24" id="svg2" version="1.1" inkscape:version="0.48.4 r9939" sodipodi:docname="link.svg">
    <defs id="defs4" />
    <sodipodi:namedview id="base" pagecolor="#ffffff" bordercolor="#666666" borderopacity="1.0" inkscape:pageopacity="0.0" inkscape:pageshadow="2" inkscape:zoom="16" inkscape:cx="16.897189" inkscape:cy="8.7097936" inkscape:document-units="px" inkscape:current-layer="layer1" showgrid="false" inkscape:showpageshadow="false" inkscape:window-width="1310" inkscape:window-height="708" inkscape:window-x="56" inkscape:window-y="32" inkscape:window-maximized="1" />
    <metadata id="metadata7">
        <rdf:RDF>
            <cc:Work rdf:about="">
                <dc:format>image/svg+xml</dc:format>
                <dc:type rdf:resource="http://purl.org/dc/dcmitype/StillImage" />
                <dc:title></dc:title>
            </cc:Work>
        </rdf:RDF>
    </metadata>
    <g inkscape:label="Calque 1" inkscape:groupmode="layer" id="layer1" transform="translate(0,-1028.3622)">
        <path style="font-size:medium;font-style:normal;font-variant:normal;font-weight:normal;font-stretch:normal;text-indent:0;text-align:start;text-decoration:none;line-height:normal;letter-spacing:normal;word-spacing:normal;text-transform:none;direction:ltr;block-progression:tb;writing-mode:lr-tb;text-anchor:start;baseline-shift:baseline;color:#000000;fill:#ff6600;fill-opacity:1;stroke:none;stroke-width:2;marker:none;visibility:visible;display:inline;overflow:visible;enable-background:accumulate;font-family:Sans;-inkscape-font-specification:Sans" d="M 14,1043.375 C 15.090703,1043.375 16,1042.4657 16,1041.375 L 16,1036.375 C 16,1035.2843 15.090703,1034.375 14,1034.375 L 3,1034.375 C 1.909297,1034.375 1,1035.2843 1,1036.375 L 1,1041.375 C 1,1042.4657 1.909297,1043.375 3,1043.375 L 14,1043.375 z M 14,1041.375 3,1041.375 3,1036.375 14,1036.375 14,1041.375 z" id="rect3755" inkscape:connector-curvature="0" />
        <path style="font-size:medium;font-style:normal;font-variant:normal;font-weight:normal;font-stretch:normal;text-indent:0;text-align:start;text-decoration:none;line-height:normal;letter-spacing:normal;word-spacing:normal;text-transform:none;direction:ltr;block-progression:tb;writing-mode:lr-tb;text-anchor:start;baseline-shift:baseline;color:#000000;fill:#ffcc00;fill-opacity:1;stroke:none;stroke-width:2;marker:none;visibility:visible;display:inline;overflow:visible;enable-background:accumulate;font-family:Sans;-inkscape-font-specification:Sans" d="M 10,1038.3622 C 8.909297,1038.3622 8,1039.2715 8,1040.3622 L 8,1041.3622 8,1043.3622 8,1045.3622 C 8,1046.4529 8.909297,1047.3622 10,1047.3622 L 21,1047.3622 C 22.090703,1047.3622 23,1046.4529 23,1045.3622 L 23,1040.3622 C 23,1039.2715 22.090703,1038.3622 21,1038.3622 L 16,1038.3622 16,1040.3622 21,1040.3622 21,1045.3622 10,1045.3622 10,1043.3622 10,1041.3622 10,1040.3622 14,1040.3622 14,1038.3622 10,1038.3622 z" id="path3857" inkscape:connector-curvature="0" />
    </g>
</svg>
