<?xml version="1.0" encoding="UTF-8" standalone="no"?>
<!-- Created with Inkscape (http://www.inkscape.org/) -->

<svg xmlns:dc="http://purl.org/dc/elements/1.1/" xmlns:cc="http://creativecommons.org/ns#" xmlns:rdf="http://www.w3.org/1999/02/22-rdf-syntax-ns#" xmlns:svg="http://www.w3.org/2000/svg" xmlns="http://www.w3.org/2000/svg" xmlns:sodipodi="http://sodipodi.sourceforge.net/DTD/sodipodi-0.dtd" xmlns:inkscape="http://www.inkscape.org/namespaces/inkscape" id="svg3745" height="24" width="24" version="1.1" inkscape:version="0.48.4 r9939" sodipodi:docname="plug-none.svg">
    <metadata id="metadata3005">
        <rdf:RDF>
            <cc:Work rdf:about="">
                <dc:format>image/svg+xml</dc:format>
                <dc:type rdf:resource="http://purl.org/dc/dcmitype/StillImage" />
            </cc:Work>
        </rdf:RDF>
    </metadata>
    <defs id="defs3003" />
    <sodipodi:namedview pagecolor="#ffffff" bordercolor="#666666" borderopacity="1" objecttolerance="10" gridtolerance="10" guidetolerance="10" inkscape:pageopacity="0" inkscape:pageshadow="2" inkscape:window-width="1310" inkscape:window-height="708" id="namedview3001" showgrid="false" inkscape:zoom="6.9532167" inkscape:cx="-42.133339" inkscape:cy="28.423201" inkscape:window-x="56" inkscape:window-y="32" inkscape:window-maximized="1" inkscape:current-layer="svg3745" />
    <path style="opacity:1;fill:#808080;stroke:none;stroke-opacity:1;fill-opacity:0.50196081" d="M 20,3 17.28125,5.71875 18.28125,6.71875 21,4 z M 18.28125,6.71875 17.28125,5.71875 C 15.726906,4.6343362 13.580906,4.7741268 12.1875,6.15625 L 15,9 17.625,12 C 17.68803,11.94488 17.75305,11.902718 17.8125,11.84375 19.212336,10.45524 19.36942,8.283567 18.28125,6.71875 z M 5.375,13 C 5.3119,13.0551 5.2469,13.09725 5.1875,13.15625 3.7876552,14.54476 3.6305797,16.716355 4.71875,18.28125 L 5.71875,19.28125 C 7.2730955,20.365512 9.419005,20.22614 10.8125,18.84375 L 8,16 z M 5.71875,19.28125 4.71875,18.28125 2,21 3,22 z" id="path3765" inkscape:connector-curvature="0" sodipodi:nodetypes="ccccccccccsccccccccccccc" />
</svg>
