<?xml version="1.0" encoding="UTF-8" standalone="no"?>
<!-- Created with Inkscape (http://www.inkscape.org/) -->

<svg xmlns:dc="http://purl.org/dc/elements/1.1/" xmlns:cc="http://creativecommons.org/ns#" xmlns:rdf="http://www.w3.org/1999/02/22-rdf-syntax-ns#" xmlns:svg="http://www.w3.org/2000/svg" xmlns="http://www.w3.org/2000/svg" xmlns:sodipodi="http://sodipodi.sourceforge.net/DTD/sodipodi-0.dtd" xmlns:inkscape="http://www.inkscape.org/namespaces/inkscape" id="svg3745" height="24" width="24" version="1.1" inkscape:version="0.48.4 r9939" sodipodi:docname="plug-connected.svg">
    <metadata id="metadata10">
        <rdf:RDF>
            <cc:Work rdf:about="">
                <dc:format>image/svg+xml</dc:format>
                <dc:type rdf:resource="http://purl.org/dc/dcmitype/StillImage" />
            </cc:Work>
        </rdf:RDF>
    </metadata>
    <defs id="defs8" />
    <sodipodi:namedview pagecolor="#ffffff" bordercolor="#666666" borderopacity="1" objecttolerance="10" gridtolerance="10" guidetolerance="10" inkscape:pageopacity="0" inkscape:pageshadow="2" inkscape:window-width="805" inkscape:window-height="480" id="namedview6" showgrid="false" inkscape:zoom="9.8333333" inkscape:cx="8.4878967" inkscape:cy="7.2988843" inkscape:window-x="56" inkscape:window-y="32" inkscape:window-maximized="0" inkscape:current-layer="svg3745" />
    <path style="opacity:1;fill:#ffffff;fill-opacity:1" d="M 19,4 14.28125,8.71875 15.28125,9.71875 20,5 z M 15.28125,9.71875 14.28125,8.71875 C 12.726906,7.6343362 10.580906,7.7741268 9.1875,9.15625 L 12,12 14.625,15 C 14.68803,14.94488 14.75305,14.902718 14.8125,14.84375 16.212336,13.45524 16.36942,11.283567 15.28125,9.71875 z M 8.375,10 C 8.3119,10.0551 8.2469,10.09725 8.1875,10.15625 6.7876552,11.54476 6.6305797,13.716426 7.71875,15.28125 L 8.71875,16.28125 C 10.273013,17.365673 12.418561,17.225873 13.8125,15.84375 L 11,13 z M 8.71875,16.28125 7.71875,15.28125 3,20 4,21 z" id="path3765" inkscape:connector-curvature="0" sodipodi:nodetypes="ccccccccccsccccccccccccc" />
</svg>
